<?xml version="1.0" encoding="UTF-8"?>
<svg width="630px" height="195px" viewBox="0 0 630 195" version="1.1" xmlns="http://www.w3.org/2000/svg" xmlns:xlink="http://www.w3.org/1999/xlink">
    <!-- Generator: Sketch 42 (36781) - http://www.bohemiancoding.com/sketch -->
    <title>Group 2</title>
    <desc>Created with Sketch.</desc>
    <defs></defs>
    <g id="Desktop-Exploration" stroke="none" stroke-width="1" fill="none" fill-rule="evenodd">
        <g id="Desktop-Landscape-Copy-9" transform="translate(-325.000000, -147.000000)">
            <g id="Group" transform="translate(276.000000, 148.000000)">
                <g id="Group-2" transform="translate(51.000000, 0.000000)">
                    <path d="M592.564315,66.5073529 C610.894555,66.5073529 625.754149,51.6191749 625.754149,33.2536765 C625.754149,14.8881781 610.894555,0 592.564315,0 L363.676859,0 C344.859595,5.68434189e-14 330,14.8881781 330,33.2536765 C330,51.6191749 344.859595,66.5073529 363.189834,66.5073529" id="Line" stroke="#42D693" stroke-width="2" stroke-linecap="square"></path>
                    <g id="Jefferson" stroke="#4997D0" stroke-width="3">
                        <path d="M557.814309,192 C557.814309,173.606299 557.814309,176.770631 557.814309,157.984252 C557.814309,139.197873 573.021871,123.968504 591.78135,123.968504 C610.325117,123.968504 625.53268,139.197873 625.53268,157.984252 C625.53268,176.770631 625.53268,173.606299 625.53268,192" id="N"></path>
                        <ellipse id="O" cx="505.479904" cy="157.984252" rx="33.9670418" ry="34.015748"></ellipse>
                        <path d="M453.145498,139.338583 C453.145498,139.338583 443.584405,122.456693 423.20418,122.456693 C402.823955,122.456693 395.024116,131.75632 395.024116,139.84252 C395.024116,147.92872 409.365756,152.944882 423.20418,156.724409 C437.042605,160.503937 451.88746,165.369244 451.88746,173.858268 C451.88746,182.347291 439.558682,190.488189 424.462219,190.488189 C409.365756,190.488189 396.282154,180.409449 394.269293,173.606299" id="S" transform="translate(423.707395, 156.472441) scale(-1, -1) translate(-423.707395, -156.472441) "></path>
                        <path d="M378.202294,126.814642 C374.032128,124.984233 369.424303,123.968504 364.579582,123.968504 C345.820103,123.968504 330.61254,139.197873 330.61254,157.984252 C330.61254,176.770631 330.61254,173.606299 330.61254,192" id="R"></path>
                        <path d="M254.62701,156.472441 L309.410169,129.590757 C303.6604,125.119114 296.437702,122.456693 288.594051,122.456693 C269.834572,122.456693 254.62701,137.686062 254.62701,156.472441 C254.62701,175.25882 269.834572,190.488189 288.594051,190.488189 C291.652434,190.488189 294.616409,190.083404 297.43547,189.324415" id="E"></path>
                        <g id="F" transform="translate(216.000000, 48.000000)">
                            <path d="M0.634244373,76.5 L22.0268197,76.5" id="Line-Copy" stroke-linecap="square"></path>
                            <path d="M45.6720257,18.015748 C45.6720257,8.55297941 38.0119201,0.881889764 28.562701,0.881889764 L28.562701,0.881889764 C19.1134818,0.881889764 11.4533762,8.55297941 11.4533762,18.015748 L11,142.753246" id="Oval"></path>
                        </g>
                        <g id="F" transform="translate(164.000000, 48.000000)">
                            <path d="M45.2186495,18.0138632 C45.2186495,8.55109452 37.5585439,0.880004883 28.1093248,0.880004883 L28.1093248,0.880004883 C18.6601056,0.880004883 11,8.55109452 11,18.0138632 L11,142.753246" id="Oval"></path>
                            <path d="M0.803054662,76.5 L22.19563,76.5" id="Line" stroke-linecap="square"></path>
                        </g>
                        <path d="M91.6525318,156.472441 L146.435691,129.590757 C140.685923,125.119114 133.463224,122.456693 125.619574,122.456693 C106.860094,122.456693 91.6525318,137.686062 91.6525318,156.472441 C91.6525318,175.25882 106.860094,190.488189 125.619574,190.488189 C128.677956,190.488189 131.641931,190.083404 134.460992,189.324415" id="E"></path>
                        <path d="M0.251607717,156.472441 C0.251607717,175.25882 15.4591703,190.488189 34.2186495,190.488189 L34.2186495,190.488189 C52.9781287,190.488189 68.1856913,175.25882 68.1856913,156.472441 L68.5,0.238879783" id="J"></path>
                    </g>
                </g>
            </g>
        </g>
    </g>
</svg>